<?xml version="1.0" encoding="utf-8"?>
<!-- Generator: Adobe Illustrator 21.0.0, SVG Export Plug-In . SVG Version: 6.00 Build 0)  -->
<svg version="1.1" id="Capa_1" xmlns="http://www.w3.org/2000/svg" xmlns:xlink="http://www.w3.org/1999/xlink" x="0px" y="0px"
	 viewBox="0 0 438 300.6" style="enable-background:new 0 0 438 300.6;" xml:space="preserve">
<style type="text/css">
	.st0{fill:#F2F2F2;}
	.st1{fill:#FFFFFF;}
</style>
<title>404</title>
<g id="_404_text">
	<g id="text_404">
		
			<image style="overflow:visible;opacity:0.2;enable-background:new    ;" width="438" height="198" xlink:href="605A76E5.png"  transform="matrix(0.9723 0 0 0.9723 6.065 0.2963)">
		</image>
		<path id="_Compound_Clipping_Path_" class="st0" d="M83.6,177.8V150H12.3v-26.8L53.8,9.6h38.7L47.4,119.4h36.2V72.2h35.2v47.1
			h16.1V150h-16.1v27.8L83.6,177.8z"/>
		<path id="_Compound_Clipping_Path_2" class="st0" d="M167.3,27.5c11-13.9,27.2-20.9,48.8-20.9c21.6,0,37.8,7,48.8,20.9
			c11,13.9,16.4,36.3,16.4,67.1s-5.4,52.9-16.3,66.3c-10.9,13.3-27.2,20-48.9,20c-21.7,0-38-6.7-48.9-20
			c-10.9-13.3-16.3-35.4-16.3-66.2S156.3,41.4,167.3,27.5z M245.1,93.8c0-21-2.2-35.7-6.6-44.1c-4.4-8.4-11.8-12.6-22.3-12.6
			c-10.4,0-17.9,4.3-22.4,12.8c-4.5,8.5-6.7,23.2-6.7,44.1c0,20.9,2.3,35.5,6.9,43.8c4.6,8.3,12.1,12.5,22.4,12.5
			c10.4,0,17.8-4.2,22.2-12.5S245.1,114.8,245.1,93.8L245.1,93.8z"/>
		<path id="_Compound_Clipping_Path_3" class="st0" d="M368.9,177.8V150h-71.3v-26.8L339.1,9.6h38.7l-45.1,109.8h36.2V72.2h35.2
			v47.1h16.1V150h-16.1v27.8L368.9,177.8z"/>
	</g>
	<path class="st1" d="M234.8,248.6c-0.2-28.7,23-52,51.6-52.2c28.7-0.2,52,23,52.2,51.6c0.2,28.7-23,52-51.6,52.2
		c-0.1,0-0.2,0-0.3,0c-28,0.6-51.3-21.6-51.9-49.6C234.8,250,234.8,249.3,234.8,248.6z M246.2,248.6c0.3,22.4,18.8,40.3,41.2,40
		c22.4-0.3,40.3-18.8,40-41.2c-0.3-22.2-18.4-40-40.6-40c-22.5,0.1-40.6,18.4-40.5,40.9C246.2,248.4,246.2,248.5,246.2,248.6
		L246.2,248.6z"/>
	<path class="st1" d="M92,207.5H49.7v30.8h41v10.9h-41v40.3H92v10.9H38.2V196.4H92V207.5z"/>
	<path class="st1" d="M123.4,196.5c8.8-0.6,17.5,1.4,25.2,5.8c12.7,9.6,15.2,27.7,5.6,40.3c-4.9,6.5-12.3,10.6-20.4,11.3l33,46.4
		h-14l-31.6-45.4h-3v45.4h-11.6V196.5H123.4z M118.2,244.5h7.5c14.4,0,22.9-6.9,22.9-19.2c0.5-6.3-2.8-12.2-8.3-15.3
		c-4.6-2.3-9.8-3.3-14.9-3h-7L118.2,244.5z"/>
	<path class="st1" d="M191.4,196.5c8.8-0.6,17.5,1.4,25.2,5.8c12.7,9.6,15.2,27.7,5.6,40.3c-4.9,6.5-12.3,10.6-20.4,11.3l33,46.4
		h-14l-31.6-45.4h-3v45.4h-11.6V196.5H191.4z M186.3,244.5h7.5c14.4,0,22.9-6.9,22.9-19.2c0.5-6.3-2.8-12.2-8.3-15.3
		c-4.6-2.3-9.8-3.3-14.9-3h-7L186.3,244.5z"/>
	<path class="st1" d="M364.2,196.5c8.8-0.6,17.5,1.4,25.2,5.8c12.7,9.6,15.2,27.7,5.6,40.3c-4.9,6.5-12.3,10.6-20.4,11.3l33,46.4
		h-14L362,254.8h-3v45.4h-11.6V196.5H364.2z M359.1,244.5h7.5c14.4,0,22.9-6.9,22.9-19.2c0.5-6.3-2.8-12.2-8.3-15.3
		c-4.6-2.3-9.8-3.3-14.9-3h-7L359.1,244.5z"/>
</g>
</svg>
